<svg width="100" height="46" viewBox="0 0 100 46" fill="none" xmlns="http://www.w3.org/2000/svg">
<path d="M17.3475 46C15.8772 46 14.7208 45.7109 13.8783 45.1327C13.0523 44.5545 12.4741 43.7698 12.1437 42.7786C11.8133 41.7708 11.6481 40.6144 11.6481 39.3093V32.1478C11.6481 30.7767 11.8133 29.5872 12.1437 28.5795C12.4741 27.5717 13.0523 26.7953 13.8783 26.2501C14.7208 25.705 15.8772 25.4324 17.3475 25.4324C18.7352 25.4324 19.8173 25.6719 20.5938 26.151C21.3867 26.6136 21.9484 27.2826 22.2788 28.1582C22.6092 29.0338 22.7744 30.0498 22.7744 31.2062V32.8912H19.2556V31.1566C19.2556 30.5949 19.2226 30.0828 19.1565 29.6202C19.1069 29.1577 18.95 28.7942 18.6857 28.5299C18.4379 28.2491 18.0001 28.1086 17.3723 28.1086C16.7445 28.1086 16.282 28.2573 15.9846 28.5547C15.7038 28.8355 15.5221 29.2238 15.4395 29.7194C15.3569 30.1984 15.3156 30.7436 15.3156 31.3549V40.0775C15.3156 40.8044 15.3734 41.4074 15.489 41.8865C15.6047 42.349 15.8112 42.7042 16.1085 42.952C16.4224 43.1833 16.8437 43.299 17.3723 43.299C17.9836 43.299 18.4131 43.1585 18.6609 42.8777C18.9252 42.5803 19.0904 42.1921 19.1565 41.713C19.2226 41.2339 19.2556 40.697 19.2556 40.1023V38.2933H22.7744V39.9041C22.7744 41.0935 22.6175 42.1508 22.3036 43.0759C21.9897 43.9845 21.4363 44.7032 20.6433 45.2318C19.8669 45.7439 18.7683 46 17.3475 46Z" fill="black"/>
<path d="M24.5843 45.7274V25.6554H28.2518V43.1998H33.1088V45.7274H24.5843Z" fill="black"/>
<path d="M34.37 45.7274V25.6554H37.988V45.7274H34.37Z" fill="black"/>
<path d="M40.3022 45.7274L40.6491 25.6554H44.4405L47.2902 39.5571L50.2639 25.6554H53.9314L54.3031 45.7274H51.5772L51.2799 31.7761L48.4301 45.7274H46.2247L43.3254 31.7266L43.0528 45.7274H40.3022Z" fill="black"/>
<path d="M56.5238 45.7274V25.6554H61.4551C62.3472 25.6554 63.1484 25.738 63.8588 25.9032C64.5857 26.0684 65.2052 26.3492 65.7173 26.7457C66.2459 27.1257 66.6507 27.6461 66.9315 28.3069C67.2124 28.9677 67.3528 29.802 67.3528 30.8097C67.3528 31.6192 67.2371 32.313 67.0059 32.8912C66.7911 33.4694 66.469 33.932 66.0394 34.2789C65.6099 34.6093 65.073 34.8324 64.4287 34.948C65.2217 35.0802 65.8742 35.361 66.3864 35.7905C66.915 36.2035 67.3032 36.7487 67.551 37.426C67.8154 38.1034 67.9475 38.9211 67.9475 39.8793C67.9475 40.8374 67.8236 41.6882 67.5758 42.4316C67.3445 43.1585 66.9893 43.7698 66.5103 44.2654C66.0477 44.7445 65.4612 45.1079 64.7509 45.3557C64.057 45.6035 63.2393 45.7274 62.2976 45.7274H56.5238ZM60.1913 43.1503H61.579C62.6858 43.1503 63.4375 42.886 63.834 42.3573C64.2305 41.8121 64.4287 40.9779 64.4287 39.8545C64.4287 39.045 64.3296 38.3925 64.1314 37.8969C63.9496 37.3847 63.6357 37.0048 63.1897 36.757C62.7602 36.5092 62.182 36.3853 61.4551 36.3853H60.1913V43.1503ZM60.1913 33.8577H61.4303C62.1572 33.8577 62.7189 33.7503 63.1154 33.5355C63.5118 33.3208 63.7844 32.9904 63.9331 32.5443C64.0983 32.0983 64.1809 31.5366 64.1809 30.8593C64.1809 30.1489 64.057 29.6037 63.8092 29.2238C63.5779 28.8273 63.2227 28.5629 62.7437 28.4308C62.2646 28.2821 61.6533 28.2078 60.9099 28.2078H60.1913V33.8577Z" fill="black"/>
<path d="M69.6732 45.7274V25.6554H73.2912V45.7274H69.6732Z" fill="black"/>
<path d="M75.655 45.7274V25.6554H78.2073L83.089 37.1039V25.6554H86.1122V45.7274H83.6838L78.7773 33.7338V45.7274H75.655Z" fill="black"/>
<path d="M93.4453 46C92.1236 46 91.0746 45.7192 90.2982 45.1575C89.5217 44.5958 88.96 43.8028 88.6131 42.7786C88.2827 41.7378 88.1175 40.5153 88.1175 39.1111V32.3709C88.1175 30.9336 88.2827 29.6946 88.6131 28.6538C88.9435 27.613 89.5217 26.8201 90.3477 26.2749C91.1903 25.7132 92.3467 25.4324 93.817 25.4324C95.1881 25.4324 96.2785 25.6637 97.088 26.1262C97.8975 26.5888 98.4757 27.2579 98.8226 28.1334C99.186 28.9925 99.3678 30.0415 99.3678 31.2805V32.3213H95.8737V31.1814C95.8737 30.5371 95.8242 29.9837 95.7251 29.5211C95.6424 29.0586 95.4607 28.7116 95.1799 28.4803C94.9156 28.2325 94.4778 28.1086 93.8665 28.1086C93.2222 28.1086 92.7514 28.2656 92.454 28.5795C92.1732 28.8934 91.9915 29.3064 91.9089 29.8185C91.8428 30.3306 91.8098 30.8923 91.8098 31.5035V39.9041C91.8098 40.5979 91.8676 41.2009 91.9832 41.713C92.0989 42.2251 92.3136 42.6216 92.6275 42.9025C92.9414 43.1668 93.3874 43.299 93.9656 43.299C94.5604 43.299 95.0147 43.1503 95.3286 42.8529C95.6424 42.5555 95.8572 42.1425 95.9728 41.6139C96.105 41.0853 96.1711 40.4575 96.1711 39.7306V37.8473H94.0152V35.5427H99.4669V45.7274H97.1127L96.8402 43.745C96.5758 44.4058 96.1711 44.951 95.6259 45.3805C95.0973 45.7935 94.3704 46 93.4453 46Z" fill="black"/>
<path d="M12 20.2951V0.223023H20.4253V2.80017H15.6675V8.57398H19.4093V11.1264H15.6675V17.7675H20.4749V20.2951H12Z" fill="black"/>
<path d="M21.856 20.2951V0.223023H25.5235V17.7675H30.3804V20.2951H21.856Z" fill="black"/>
<path d="M31.5425 20.2951V0.223023H36.4738C37.3659 0.223023 38.1671 0.305624 38.8775 0.470827C39.6044 0.636028 40.2239 0.916871 40.736 1.31336C41.2647 1.69332 41.6694 2.21371 41.9503 2.87451C42.2311 3.53532 42.3715 4.36959 42.3715 5.37732C42.3715 6.18681 42.2559 6.88066 42.0246 7.45887C41.8098 8.03707 41.4877 8.49964 41.0582 8.84656C40.6287 9.17697 40.0917 9.39999 39.4475 9.51563C40.2404 9.64779 40.893 9.92864 41.4051 10.3582C41.9337 10.7712 42.322 11.3163 42.5698 11.9937C42.8341 12.671 42.9663 13.4887 42.9663 14.4469C42.9663 15.4051 42.8424 16.2559 42.5946 16.9993C42.3633 17.7262 42.0081 18.3374 41.529 18.833C41.0664 19.3121 40.48 19.6755 39.7696 19.9233C39.0758 20.1712 38.258 20.2951 37.3164 20.2951H31.5425ZM35.21 17.7179H36.5977C37.7046 17.7179 38.4562 17.4536 38.8527 16.9249C39.2492 16.3798 39.4475 15.5455 39.4475 14.4221C39.4475 13.6126 39.3483 12.9601 39.1501 12.4645C38.9684 11.9524 38.6545 11.5724 38.2084 11.3246C37.7789 11.0768 37.2007 10.9529 36.4738 10.9529H35.21V17.7179ZM35.21 8.4253H36.449C37.1759 8.4253 37.7376 8.31791 38.1341 8.10315C38.5306 7.88839 38.8032 7.55799 38.9519 7.11194C39.1171 6.6659 39.1997 6.10421 39.1997 5.42688C39.1997 4.71652 39.0758 4.17135 38.828 3.79138C38.5967 3.3949 38.2415 3.13058 37.7624 2.99842C37.2833 2.84973 36.6721 2.77539 35.9287 2.77539H35.21V8.4253Z" fill="black"/>
<path d="M44.5929 20.2951V0.223023H49.4002C50.7549 0.223023 51.8948 0.388225 52.8199 0.71863C53.7616 1.03251 54.4719 1.57768 54.951 2.35413C55.4466 3.13058 55.6944 4.18787 55.6944 5.526C55.6944 6.33549 55.6201 7.06238 55.4714 7.70667C55.3227 8.35096 55.0667 8.90438 54.7032 9.36695C54.3563 9.81299 53.8689 10.1599 53.2412 10.4077L56.0413 20.2951H52.3739L49.9454 11.1016H48.2603V20.2951H44.5929ZM48.2603 8.797H49.4002C50.1106 8.797 50.6723 8.69788 51.0853 8.49964C51.5148 8.28488 51.8204 7.95447 52.0022 7.50843C52.1839 7.04586 52.2747 6.4594 52.2747 5.74903C52.2747 4.7413 52.0848 3.98963 51.7048 3.49402C51.3414 2.98189 50.6392 2.72583 49.5985 2.72583H48.2603V8.797Z" fill="black"/>
<path d="M63.1686 20.5676C61.6818 20.5676 60.5254 20.2951 59.6993 19.7499C58.8733 19.2047 58.3034 18.4283 57.9895 17.4205C57.6756 16.4128 57.5187 15.2068 57.5187 13.8026V0.223023H61.087V14.2239C61.087 14.8516 61.1283 15.4464 61.2109 16.0081C61.2935 16.5532 61.4835 16.9993 61.7809 17.3462C62.0948 17.6766 62.5573 17.8418 63.1686 17.8418C63.8129 17.8418 64.2754 17.6766 64.5563 17.3462C64.8536 16.9993 65.0436 16.5532 65.1262 16.0081C65.2254 15.4464 65.2749 14.8516 65.2749 14.2239V0.223023H68.8185V13.8026C68.8185 15.2068 68.6615 16.4128 68.3477 17.4205C68.0338 18.4283 67.4638 19.2047 66.6378 19.7499C65.8283 20.2951 64.6719 20.5676 63.1686 20.5676Z" fill="black"/>
<path d="M76.0148 20.5676C74.8089 20.5676 73.8011 20.3364 72.9916 19.8738C72.1822 19.3947 71.5709 18.7009 71.1579 17.7922C70.7449 16.8836 70.5136 15.7685 70.4641 14.4469L73.6112 13.8274C73.6442 14.6038 73.7351 15.2894 73.8837 15.8842C74.0489 16.4789 74.2885 16.9415 74.6024 17.2719C74.9328 17.5857 75.3623 17.7427 75.8909 17.7427C76.4857 17.7427 76.9069 17.5692 77.1547 17.2223C77.4025 16.8589 77.5264 16.4045 77.5264 15.8594C77.5264 14.9838 77.3282 14.2652 76.9317 13.7035C76.5352 13.1418 76.0066 12.5801 75.3458 12.0184L72.8182 9.78821C72.1078 9.17697 71.5379 8.49964 71.1083 7.75623C70.6953 6.9963 70.4888 6.06291 70.4888 4.95606C70.4888 3.37012 70.9514 2.14763 71.8765 1.28858C72.8017 0.429525 74.0655 0 75.6679 0C76.6096 0 77.3943 0.148682 78.022 0.446045C78.6498 0.726889 79.1454 1.12337 79.5089 1.6355C79.8888 2.14763 80.1697 2.73409 80.3514 3.3949C80.5331 4.03919 80.6488 4.72478 80.6983 5.45166L77.576 5.99683C77.543 5.36906 77.4686 4.80738 77.353 4.31177C77.2539 3.81616 77.0639 3.42794 76.783 3.1471C76.5187 2.86625 76.1222 2.72583 75.5936 2.72583C75.0484 2.72583 74.6271 2.90755 74.3298 3.271C74.0489 3.61792 73.9085 4.05571 73.9085 4.58435C73.9085 5.26168 74.0489 5.82337 74.3298 6.26941C74.6106 6.69894 75.0154 7.14498 75.544 7.60755L78.0468 9.81299C78.8728 10.5068 79.5749 11.3246 80.1532 12.2662C80.7479 13.1914 81.0452 14.3147 81.0452 15.6364C81.0452 16.5945 80.8305 17.4453 80.401 18.1887C79.988 18.9321 79.4015 19.5186 78.6416 19.9481C77.8981 20.3611 77.0226 20.5676 76.0148 20.5676Z" fill="black"/>
<path d="M0 0.0795898H3.91268V45.7275H0V0.0795898Z" fill="#FF0002"/>
</svg>
