<svg width="100" height="46" viewBox="0 0 100 46" fill="none" xmlns="http://www.w3.org/2000/svg">
<path d="M17.3475 46C15.8772 46 14.7208 45.7109 13.8783 45.1327C13.0522 44.5545 12.474 43.7698 12.1436 42.7786C11.8132 41.7708 11.648 40.6144 11.648 39.3093V32.1478C11.648 30.7767 11.8132 29.5872 12.1436 28.5795C12.474 27.5717 13.0522 26.7953 13.8783 26.2501C14.7208 25.705 15.8772 25.4324 17.3475 25.4324C18.7352 25.4324 19.8173 25.6719 20.5937 26.151C21.3867 26.6136 21.9484 27.2826 22.2788 28.1582C22.6092 29.0338 22.7744 30.0498 22.7744 31.2062V32.8912H19.2556V31.1566C19.2556 30.5949 19.2225 30.0828 19.1565 29.6202C19.1069 29.1577 18.95 28.7942 18.6856 28.5299C18.4378 28.2491 18 28.1086 17.3723 28.1086C16.7445 28.1086 16.2819 28.2573 15.9846 28.5547C15.7037 28.8355 15.522 29.2238 15.4394 29.7194C15.3568 30.1984 15.3155 30.7436 15.3155 31.3549V40.0775C15.3155 40.8044 15.3733 41.4074 15.489 41.8865C15.6046 42.349 15.8111 42.7042 16.1085 42.952C16.4224 43.1833 16.8436 43.299 17.3723 43.299C17.9835 43.299 18.4131 43.1585 18.6609 42.8777C18.9252 42.5803 19.0904 42.1921 19.1565 41.713C19.2225 41.2339 19.2556 40.697 19.2556 40.1023V38.2933H22.7744V39.9041C22.7744 41.0935 22.6174 42.1508 22.3036 43.0759C21.9897 43.9845 21.4362 44.7032 20.6433 45.2318C19.8668 45.7439 18.7682 46 17.3475 46Z" fill="white"/>
<path d="M24.5843 45.7274V25.6554H28.2518V43.1998H33.1087V45.7274H24.5843Z" fill="white"/>
<path d="M34.37 45.7274V25.6554H37.9879V45.7274H34.37Z" fill="white"/>
<path d="M40.3022 45.7274L40.6491 25.6554H44.4405L47.2902 39.5571L50.2638 25.6554H53.9313L54.303 45.7274H51.5772L51.2798 31.7761L48.4301 45.7274H46.2247L43.3254 31.7266L43.0528 45.7274H40.3022Z" fill="white"/>
<path d="M56.5238 45.7274V25.6554H61.455C62.3471 25.6554 63.1484 25.738 63.8587 25.9032C64.5856 26.0684 65.2051 26.3492 65.7173 26.7457C66.2459 27.1257 66.6506 27.6461 66.9315 28.3069C67.2123 28.9677 67.3528 29.802 67.3528 30.8097C67.3528 31.6192 67.2371 32.313 67.0058 32.8912C66.7911 33.4694 66.4689 33.932 66.0394 34.2789C65.6099 34.6093 65.073 34.8324 64.4287 34.948C65.2216 35.0802 65.8742 35.361 66.3863 35.7905C66.915 36.2035 67.3032 36.7487 67.551 37.426C67.8153 38.1034 67.9475 38.9211 67.9475 39.8793C67.9475 40.8374 67.8236 41.6882 67.5758 42.4316C67.3445 43.1585 66.9893 43.7698 66.5102 44.2654C66.0477 44.7445 65.4612 45.1079 64.7508 45.3557C64.057 45.6035 63.2392 45.7274 62.2976 45.7274H56.5238ZM60.1912 43.1503H61.5789C62.6858 43.1503 63.4375 42.886 63.834 42.3573C64.2304 41.8121 64.4287 40.9779 64.4287 39.8545C64.4287 39.045 64.3296 38.3925 64.1313 37.8969C63.9496 37.3847 63.6357 37.0048 63.1897 36.757C62.7601 36.5092 62.1819 36.3853 61.455 36.3853H60.1912V43.1503ZM60.1912 33.8577H61.4303C62.1572 33.8577 62.7188 33.7503 63.1153 33.5355C63.5118 33.3208 63.7844 32.9904 63.9331 32.5443C64.0983 32.0983 64.1809 31.5366 64.1809 30.8593C64.1809 30.1489 64.057 29.6037 63.8092 29.2238C63.5779 28.8273 63.2227 28.5629 62.7436 28.4308C62.2645 28.2821 61.6533 28.2078 60.9099 28.2078H60.1912V33.8577Z" fill="white"/>
<path d="M69.6732 45.7274V25.6554H73.2911V45.7274H69.6732Z" fill="white"/>
<path d="M75.6549 45.7274V25.6554H78.2073L83.089 37.1039V25.6554H86.1122V45.7274H83.6837L78.7772 33.7338V45.7274H75.6549Z" fill="white"/>
<path d="M93.4452 46C92.1236 46 91.0746 45.7192 90.2981 45.1575C89.5217 44.5958 88.96 43.8028 88.6131 42.7786C88.2827 41.7378 88.1175 40.5153 88.1175 39.1111V32.3709C88.1175 30.9336 88.2827 29.6946 88.6131 28.6538C88.9435 27.613 89.5217 26.8201 90.3477 26.2749C91.1902 25.7132 92.3466 25.4324 93.8169 25.4324C95.1881 25.4324 96.2784 25.6637 97.0879 26.1262C97.8974 26.5888 98.4756 27.2579 98.8225 28.1334C99.186 28.9925 99.3677 30.0415 99.3677 31.2805V32.3213H95.8737V31.1814C95.8737 30.5371 95.8241 29.9837 95.725 29.5211C95.6424 29.0586 95.4607 28.7116 95.1798 28.4803C94.9155 28.2325 94.4777 28.1086 93.8665 28.1086C93.2222 28.1086 92.7514 28.2656 92.454 28.5795C92.1732 28.8934 91.9914 29.3064 91.9088 29.8185C91.8428 30.3306 91.8097 30.8923 91.8097 31.5035V39.9041C91.8097 40.5979 91.8675 41.2009 91.9832 41.713C92.0988 42.2251 92.3136 42.6216 92.6275 42.9025C92.9414 43.1668 93.3874 43.299 93.9656 43.299C94.5603 43.299 95.0146 43.1503 95.3285 42.8529C95.6424 42.5555 95.8572 42.1425 95.9728 41.6139C96.105 41.0853 96.1711 40.4575 96.1711 39.7306V37.8473H94.0152V35.5427H99.4668V45.7274H97.1127L96.8401 43.745C96.5758 44.4058 96.1711 44.951 95.6259 45.3805C95.0972 45.7935 94.3704 46 93.4452 46Z" fill="white"/>
<path d="M11.9454 20.2951V0.223023H20.3707V2.80017H15.6129V8.57398H19.3547V11.1264H15.6129V17.7675H20.4203V20.2951H11.9454Z" fill="white"/>
<path d="M21.8014 20.2951V0.223023H25.4689V17.7675H30.3258V20.2951H21.8014Z" fill="white"/>
<path d="M31.488 20.2951V0.223023H36.4192C37.3113 0.223023 38.1125 0.305624 38.8229 0.470827C39.5498 0.636028 40.1693 0.916871 40.6814 1.31336C41.2101 1.69332 41.6148 2.21371 41.8957 2.87451C42.1765 3.53532 42.3169 4.36959 42.3169 5.37732C42.3169 6.18681 42.2013 6.88066 41.97 7.45887C41.7553 8.03707 41.4331 8.49964 41.0036 8.84656C40.5741 9.17697 40.0372 9.39999 39.3929 9.51563C40.1858 9.64779 40.8384 9.92863 41.3505 10.3582C41.8792 10.7712 42.2674 11.3163 42.5152 11.9937C42.7795 12.671 42.9117 13.4887 42.9117 14.4469C42.9117 15.4051 42.7878 16.2559 42.54 16.9993C42.3087 17.7262 41.9535 18.3374 41.4744 18.833C41.0118 19.3121 40.4254 19.6755 39.715 19.9233C39.0212 20.1712 38.2034 20.2951 37.2618 20.2951H31.488ZM35.1554 17.7179H36.5431C37.65 17.7179 38.4017 17.4536 38.7981 16.9249C39.1946 16.3798 39.3929 15.5455 39.3929 14.4221C39.3929 13.6126 39.2937 12.9601 39.0955 12.4645C38.9138 11.9524 38.5999 11.5724 38.1538 11.3246C37.7243 11.0768 37.1461 10.9529 36.4192 10.9529H35.1554V17.7179ZM35.1554 8.4253H36.3944C37.1213 8.4253 37.683 8.31792 38.0795 8.10315C38.476 7.88839 38.7486 7.55799 38.8973 7.11194C39.0625 6.6659 39.1451 6.10421 39.1451 5.42688C39.1451 4.71652 39.0212 4.17135 38.7734 3.79138C38.5421 3.3949 38.1869 3.13058 37.7078 2.99842C37.2287 2.84973 36.6175 2.77539 35.8741 2.77539H35.1554V8.4253Z" fill="white"/>
<path d="M44.5383 20.2951V0.223023H49.3456C50.7003 0.223023 51.8402 0.388225 52.7653 0.71863C53.707 1.03251 54.4173 1.57768 54.8964 2.35413C55.392 3.13058 55.6398 4.18787 55.6398 5.526C55.6398 6.33549 55.5655 7.06238 55.4168 7.70667C55.2681 8.35096 55.0121 8.90438 54.6486 9.36695C54.3017 9.81299 53.8143 10.1599 53.1866 10.4077L55.9868 20.2951H52.3193L49.8908 11.1016H48.2057V20.2951H44.5383ZM48.2057 8.797H49.3456C50.056 8.797 50.6177 8.69788 51.0307 8.49964C51.4602 8.28488 51.7658 7.95447 51.9476 7.50843C52.1293 7.04586 52.2201 6.4594 52.2201 5.74903C52.2201 4.7413 52.0302 3.98963 51.6502 3.49402C51.2868 2.98189 50.5846 2.72583 49.5439 2.72583H48.2057V8.797Z" fill="white"/>
<path d="M63.114 20.5676C61.6272 20.5676 60.4708 20.2951 59.6447 19.7499C58.8187 19.2047 58.2488 18.4283 57.9349 17.4205C57.621 16.4128 57.4641 15.2068 57.4641 13.8026V0.223023H61.0324V14.2239C61.0324 14.8517 61.0737 15.4464 61.1563 16.0081C61.2389 16.5532 61.4289 16.9993 61.7263 17.3462C62.0402 17.6766 62.5027 17.8418 63.114 17.8418C63.7583 17.8418 64.2208 17.6766 64.5017 17.3462C64.7991 16.9993 64.989 16.5532 65.0716 16.0081C65.1708 15.4464 65.2203 14.8517 65.2203 14.2239V0.223023H68.7639V13.8026C68.7639 15.2068 68.607 16.4128 68.2931 17.4205C67.9792 18.4283 67.4092 19.2047 66.5832 19.7499C65.7737 20.2951 64.6173 20.5676 63.114 20.5676Z" fill="white"/>
<path d="M75.9602 20.5676C74.7543 20.5676 73.7465 20.3364 72.937 19.8738C72.1276 19.3947 71.5163 18.7009 71.1033 17.7922C70.6903 16.8836 70.459 15.7685 70.4095 14.4469L73.5566 13.8274C73.5896 14.6038 73.6805 15.2894 73.8291 15.8842C73.9943 16.4789 74.2339 16.9415 74.5478 17.2719C74.8782 17.5857 75.3077 17.7427 75.8363 17.7427C76.4311 17.7427 76.8523 17.5692 77.1001 17.2223C77.3479 16.8589 77.4718 16.4045 77.4718 15.8594C77.4718 14.9838 77.2736 14.2652 76.8771 13.7035C76.4806 13.1418 75.952 12.5801 75.2912 12.0184L72.7636 9.78821C72.0532 9.17697 71.4833 8.49964 71.0537 7.75623C70.6407 6.9963 70.4342 6.06291 70.4342 4.95606C70.4342 3.37012 70.8968 2.14763 71.8219 1.28858C72.7471 0.429525 74.0109 0 75.6133 0C76.555 0 77.3397 0.148682 77.9675 0.446045C78.5952 0.726889 79.0908 1.12337 79.4543 1.6355C79.8342 2.14763 80.1151 2.73409 80.2968 3.3949C80.4785 4.03919 80.5942 4.72478 80.6437 5.45166L77.5214 5.99683C77.4884 5.36906 77.414 4.80738 77.2984 4.31177C77.1993 3.81616 77.0093 3.42794 76.7284 3.1471C76.4641 2.86625 76.0676 2.72583 75.539 2.72583C74.9938 2.72583 74.5725 2.90755 74.2752 3.271C73.9943 3.61792 73.8539 4.05571 73.8539 4.58435C73.8539 5.26168 73.9943 5.82337 74.2752 6.26941C74.556 6.69894 74.9608 7.14498 75.4894 7.60755L77.9922 9.81299C78.8182 10.5068 79.5203 11.3246 80.0986 12.2662C80.6933 13.1914 80.9906 14.3147 80.9906 15.6364C80.9906 16.5945 80.7759 17.4453 80.3464 18.1887C79.9333 18.9321 79.3469 19.5186 78.587 19.9481C77.8435 20.3611 76.968 20.5676 75.9602 20.5676Z" fill="white"/>
<path d="M0 0.0795898H3.91268V45.7275H0V0.0795898Z" fill="#FF0002"/>
</svg>
