<svg width="31" height="31" viewBox="0 0 31 31" fill="none" xmlns="http://www.w3.org/2000/svg">
<circle cx="16" cy="15.3296" r="13" fill="white"/>
<path d="M15.5 0.378906C6.93948 0.378906 0 7.09453 0 15.3789C0 23.6633 6.93948 30.3789 15.5 30.3789C24.0605 30.3789 31 23.6633 31 15.3789C31 7.09453 24.0605 0.378906 15.5 0.378906ZM21.461 17.3023C21.461 17.3023 22.8318 18.6117 23.1693 19.2195C23.179 19.232 23.1838 19.2445 23.187 19.2508C23.3243 19.4742 23.3566 19.6477 23.2887 19.7773C23.1757 19.993 22.7882 20.0992 22.6558 20.1086H20.234C20.066 20.1086 19.7141 20.0664 19.2878 19.782C18.9601 19.5602 18.6371 19.1961 18.3223 18.8414C17.8524 18.3133 17.4456 17.857 17.0355 17.857C16.9834 17.8569 16.9316 17.8649 16.8821 17.8805C16.5721 17.9773 16.1749 18.4055 16.1749 19.5461C16.1749 19.9023 15.8843 20.107 15.6792 20.107H14.57C14.1922 20.107 12.224 19.9789 10.4803 18.1992C8.34578 16.0195 6.42443 11.6477 6.40828 11.607C6.28719 11.3242 6.53745 11.1727 6.81031 11.1727H9.25641C9.58255 11.1727 9.68911 11.3648 9.76338 11.5352C9.85057 11.7336 10.1703 12.5227 10.695 13.4102C11.5459 14.857 12.0674 15.4445 12.4856 15.4445C12.564 15.4436 12.641 15.4243 12.71 15.3883C13.2557 15.0945 13.154 13.2117 13.1298 12.8211C13.1298 12.7477 13.1282 11.9789 12.8489 11.6102C12.6486 11.343 12.308 11.2414 12.1013 11.2039C12.1849 11.0922 12.2952 11.0016 12.4226 10.9398C12.7972 10.7586 13.4721 10.732 14.1421 10.732H14.5151C15.2417 10.7414 15.429 10.7867 15.6921 10.8508C16.2249 10.9742 16.2362 11.307 16.1894 12.4461C16.1749 12.7695 16.1604 13.1352 16.1604 13.5664C16.1604 13.6602 16.1555 13.7602 16.1555 13.8664C16.1394 14.4461 16.12 15.1039 16.543 15.3742C16.5982 15.4077 16.662 15.4256 16.7271 15.4258C16.874 15.4258 17.3164 15.4258 18.5144 13.4367C18.8839 12.7965 19.205 12.1312 19.4751 11.4461C19.4993 11.4055 19.5704 11.2805 19.6543 11.232C19.7163 11.2015 19.785 11.1859 19.8545 11.1867H22.7301C23.0433 11.1867 23.2581 11.232 23.2984 11.3492C23.3695 11.5352 23.2855 12.1023 21.9729 13.8227L21.3868 14.5711C20.1968 16.0805 20.1968 16.157 21.461 17.3023Z" fill="#0177FF"/>
</svg>
