<svg width="31" height="32" viewBox="0 0 31 32" fill="none" xmlns="http://www.w3.org/2000/svg">
<g clip-path="url(#clip0_0_3900)">
<path d="M0.661348 15.4348C0.660621 18.0598 1.3465 20.6228 2.65068 22.882L0.536621 30.6007L8.43581 28.5295C10.6206 29.7189 13.0685 30.3421 15.5561 30.3423H15.5627C23.7746 30.3423 30.4594 23.66 30.4629 15.4466C30.4645 11.4666 28.9159 7.72405 26.1024 4.90837C23.2894 2.09294 19.5482 0.541611 15.5621 0.539795C7.34911 0.539795 0.664859 7.22175 0.661469 15.4348" fill="url(#paint0_linear_0_3900)"/>
<path d="M0.12957 15.4293C0.128723 18.1487 0.83918 20.8034 2.18986 23.1434L0 31.1389L8.18243 28.9935C10.4369 30.2227 12.9753 30.8708 15.5582 30.8718H15.5649C24.0715 30.8718 30.9964 23.9491 31 15.4416C31.0015 11.3186 29.3972 7.44157 26.4832 4.52503C23.5688 1.60885 19.6938 0.00169531 15.5649 0C7.05686 0 0.133082 6.92172 0.129691 15.4293H0.12957ZM5.00238 22.7404L4.69686 22.2555C3.41254 20.2133 2.73466 17.8535 2.73563 15.4303C2.73841 8.35898 8.49327 2.60594 15.5698 2.60594C18.9967 2.60739 22.2173 3.9433 24.6397 6.36711C27.0619 8.79116 28.3948 12.0135 28.3939 15.4407C28.3908 22.5119 22.6358 28.2657 15.5649 28.2657H15.5598C13.2575 28.2645 10.9994 27.6462 9.0302 26.4778L8.56157 26.1998L3.70595 27.4729L5.00238 22.7403V22.7404Z" fill="url(#paint1_linear_0_3900)"/>
<path d="M11.7074 8.97833C11.4184 8.33617 11.1144 8.32321 10.8396 8.31195C10.6146 8.30226 10.3574 8.30299 10.1004 8.30299C9.84325 8.30299 9.42535 8.39974 9.07212 8.78543C8.71853 9.17148 7.72217 10.1044 7.72217 12.0018C7.72217 13.8993 9.10421 15.7331 9.29687 15.9906C9.48977 16.2477 11.9649 20.2661 15.885 21.812C19.1429 23.0966 19.8059 22.8411 20.5129 22.7767C21.2201 22.7125 22.7948 21.8441 23.1161 20.9435C23.4376 20.043 23.4376 19.2712 23.3412 19.1099C23.2448 18.9492 22.9876 18.8527 22.6019 18.6599C22.2161 18.467 20.32 17.534 19.9666 17.4052C19.613 17.2766 19.3559 17.2125 19.0987 17.5986C18.8415 17.9842 18.1029 18.8527 17.8778 19.1099C17.6529 19.3677 17.4278 19.3998 17.0423 19.2069C16.6563 19.0134 15.4143 18.6066 13.9407 17.2929C12.7942 16.2706 12.0201 15.0082 11.7952 14.622C11.5702 14.2365 11.7711 14.0275 11.9644 13.8353C12.1377 13.6625 12.3502 13.3849 12.5433 13.1598C12.7356 12.9346 12.7997 12.7739 12.9284 12.5167C13.0571 12.2592 12.9927 12.034 12.8964 11.8411C12.7997 11.6482 12.0503 9.74098 11.7074 8.97845" fill="white"/>
</g>
<defs>
<linearGradient id="paint0_linear_0_3900" x1="15.4998" y1="30.6007" x2="15.4998" y2="0.539795" gradientUnits="userSpaceOnUse">
<stop stop-color="#1FAF38"/>
<stop offset="1" stop-color="#60D669"/>
</linearGradient>
<linearGradient id="paint1_linear_0_3900" x1="15.5" y1="31.1389" x2="15.5" y2="0" gradientUnits="userSpaceOnUse">
<stop stop-color="#F9F9F9"/>
<stop offset="1" stop-color="white"/>
</linearGradient>
<clipPath id="clip0_0_3900">
<rect width="31" height="31.2422" fill="white"/>
</clipPath>
</defs>
</svg>
