<svg width="29" height="29" viewBox="0 0 29 29" fill="none" xmlns="http://www.w3.org/2000/svg">
<path d="M14.1361 2.82715C17.3367 2.82715 17.7361 2.83893 18.9918 2.89783C20.2464 2.95673 21.1005 3.15346 21.852 3.4456C22.6295 3.74482 23.2845 4.15005 23.9395 4.80385C24.5385 5.39273 25.002 6.10507 25.2977 6.89128C25.5887 7.64168 25.7866 8.49691 25.8455 9.75149C25.9008 11.0073 25.9162 11.4066 25.9162 14.6073C25.9162 17.8079 25.9044 18.2072 25.8455 19.463C25.7866 20.7176 25.5887 21.5716 25.2977 22.3232C25.0028 23.1099 24.5392 23.8224 23.9395 24.4107C23.3504 25.0095 22.6381 25.4729 21.852 25.7689C21.1016 26.0599 20.2464 26.2578 18.9918 26.3167C17.7361 26.372 17.3367 26.3874 14.1361 26.3874C10.9354 26.3874 10.5361 26.3756 9.2803 26.3167C8.02572 26.2578 7.17166 26.0599 6.42009 25.7689C5.63357 25.4738 4.92111 25.0102 4.33266 24.4107C3.73353 23.8219 3.27001 23.1095 2.97441 22.3232C2.68227 21.5728 2.48554 20.7176 2.42664 19.463C2.37127 18.2072 2.35596 17.8079 2.35596 14.6073C2.35596 11.4066 2.36774 11.0073 2.42664 9.75149C2.48554 8.49573 2.68227 7.64285 2.97441 6.89128C3.26919 6.10458 3.73282 5.39205 4.33266 4.80385C4.92128 4.20451 5.63369 3.74097 6.42009 3.4456C7.17166 3.15346 8.02454 2.95673 9.2803 2.89783C10.5361 2.84246 10.9354 2.82715 14.1361 2.82715ZM14.1361 8.7172C12.5739 8.7172 11.0758 9.33776 9.97116 10.4424C8.86657 11.547 8.24601 13.0451 8.24601 14.6073C8.24601 16.1694 8.86657 17.6675 9.97116 18.7721C11.0758 19.8767 12.5739 20.4973 14.1361 20.4973C15.6982 20.4973 17.1964 19.8767 18.301 18.7721C19.4056 17.6675 20.0261 16.1694 20.0261 14.6073C20.0261 13.0451 19.4056 11.547 18.301 10.4424C17.1964 9.33776 15.6982 8.7172 14.1361 8.7172ZM21.7931 8.4227C21.7931 8.03216 21.638 7.65762 21.3618 7.38147C21.0857 7.10532 20.7111 6.95018 20.3206 6.95018C19.9301 6.95018 19.5555 7.10532 19.2794 7.38147C19.0032 7.65762 18.8481 8.03216 18.8481 8.4227C18.8481 8.81323 19.0032 9.18777 19.2794 9.46392C19.5555 9.74007 19.9301 9.89521 20.3206 9.89521C20.7111 9.89521 21.0857 9.74007 21.3618 9.46392C21.638 9.18777 21.7931 8.81323 21.7931 8.4227ZM14.1361 11.0732C15.0733 11.0732 15.9722 11.4456 16.635 12.1083C17.2978 12.7711 17.6701 13.67 17.6701 14.6073C17.6701 15.5445 17.2978 16.4434 16.635 17.1062C15.9722 17.7689 15.0733 18.1413 14.1361 18.1413C13.1988 18.1413 12.2999 17.7689 11.6371 17.1062C10.9744 16.4434 10.602 15.5445 10.602 14.6073C10.602 13.67 10.9744 12.7711 11.6371 12.1083C12.2999 11.4456 13.1988 11.0732 14.1361 11.0732Z" fill="white"/>
</svg>
