<svg width="38" height="26" viewBox="0 0 38 26" fill="none" xmlns="http://www.w3.org/2000/svg">
<path d="M37.3381 3.47185C37.6366 4.33851 36.6632 6.32914 34.418 9.44372C34.1066 9.87705 33.6848 10.4526 33.1527 11.1703C32.6335 11.8609 32.2766 12.3484 32.082 12.6328C31.8873 12.9172 31.6894 13.2523 31.4882 13.6383C31.2871 14.0242 31.2092 14.3086 31.2546 14.4914C31.3 14.6742 31.3844 14.9078 31.5077 15.1922C31.631 15.4765 31.8419 15.7677 32.1404 16.0656C32.4389 16.3635 32.8087 16.7224 33.25 17.1422C33.3019 17.1692 33.3344 17.1963 33.3473 17.2234C35.1773 18.9974 36.4167 20.4937 37.0656 21.7125C37.1045 21.7802 37.1467 21.8648 37.1921 21.9664C37.2375 22.0679 37.283 22.2474 37.3284 22.5047C37.3738 22.7619 37.3706 22.9922 37.3186 23.1953C37.2667 23.3984 37.1045 23.5846 36.832 23.7539C36.5594 23.9231 36.1766 24.0078 35.6834 24.0078L30.6998 24.089C30.3883 24.1567 30.0249 24.1229 29.6096 23.9875C29.1943 23.8521 28.8569 23.7031 28.5973 23.5406L28.208 23.2968C27.8186 23.0125 27.3644 22.5791 26.8453 21.9968C26.3262 21.4146 25.8817 20.8898 25.5118 20.4226C25.1419 19.9554 24.7461 19.5627 24.3243 19.2445C23.9025 18.9263 23.5359 18.8213 23.2244 18.9297C23.1854 18.9432 23.1335 18.9669 23.0686 19.0008C23.0038 19.0346 22.8934 19.1328 22.7377 19.2953C22.582 19.4578 22.4425 19.6575 22.3192 19.8945C22.1959 20.1315 22.0856 20.4836 21.9882 20.9508C21.8909 21.4179 21.8487 21.9427 21.8617 22.525C21.8617 22.7281 21.839 22.9143 21.7935 23.0836C21.7481 23.2528 21.6995 23.3781 21.6475 23.4593L21.5697 23.5609C21.3361 23.8182 20.9921 23.9672 20.5379 24.0078H18.2992C17.3777 24.0619 16.4303 23.9502 15.457 23.6726C14.4836 23.395 13.6303 23.0362 12.897 22.5961C12.1638 22.156 11.4954 21.7091 10.8919 21.2554C10.2884 20.8018 9.83094 20.4125 9.51947 20.0875L9.03279 19.6C8.903 19.4646 8.72456 19.2614 8.49744 18.9906C8.27032 18.7198 7.80635 18.1036 7.10553 17.1422C6.40471 16.1807 5.71687 15.1583 5.04201 14.075C4.36714 12.9916 3.57223 11.563 2.65727 9.78903C1.74232 8.01508 0.895492 6.17341 0.116803 4.26403C0.0389344 4.04737 0 3.86456 0 3.7156C0 3.56664 0.0194672 3.45831 0.0584016 3.3906L0.13627 3.26872C0.330943 3.01143 0.70082 2.88278 1.2459 2.88278L6.57992 2.84216C6.73566 2.86924 6.8849 2.91325 7.02766 2.97419C7.17042 3.03513 7.27425 3.09268 7.33914 3.14685L7.43648 3.20778C7.64413 3.35674 7.79986 3.57341 7.90369 3.85778C8.16325 4.53487 8.46175 5.23565 8.79918 5.96013C9.13661 6.68461 9.40266 7.23643 9.59734 7.6156L9.90881 8.20466C10.2852 9.01716 10.6486 9.72132 10.999 10.3172C11.3494 10.913 11.6641 11.3768 11.9431 11.7086C12.2222 12.0403 12.4915 12.301 12.751 12.4906C13.0106 12.6802 13.2312 12.775 13.4129 12.775C13.5946 12.775 13.7698 12.7411 13.9385 12.6734C13.9645 12.6599 13.9969 12.626 14.0359 12.5718C14.0748 12.5177 14.1527 12.3687 14.2695 12.125C14.3863 11.8812 14.4739 11.563 14.5323 11.1703C14.5907 10.7776 14.6523 10.2291 14.7172 9.52497C14.7821 8.8208 14.7821 7.97445 14.7172 6.98591C14.6913 6.44424 14.6329 5.94997 14.542 5.5031C14.4512 5.05622 14.3603 4.74476 14.2695 4.56872L14.1527 4.32497C13.8282 3.86456 13.2766 3.57341 12.498 3.45153C12.3292 3.42445 12.3617 3.26195 12.5953 2.96403C12.8029 2.70674 13.0495 2.50362 13.335 2.35466C14.0229 2.00258 15.5738 1.84008 17.9877 1.86716C19.0519 1.8807 19.9279 1.96872 20.6158 2.13122C20.8753 2.19893 21.0927 2.29034 21.2679 2.40544C21.4431 2.52054 21.5762 2.68304 21.667 2.89294C21.7579 3.10284 21.826 3.3195 21.8714 3.54294C21.9168 3.76638 21.9395 4.07445 21.9395 4.46716C21.9395 4.85987 21.9331 5.23226 21.9201 5.58435C21.9071 5.93643 21.8909 6.41377 21.8714 7.01638C21.8519 7.61898 21.8422 8.17758 21.8422 8.69216C21.8422 8.84112 21.8357 9.12549 21.8227 9.54528C21.8098 9.96508 21.8065 10.2901 21.813 10.5203C21.8195 10.7505 21.8422 11.0247 21.8811 11.3429C21.9201 11.6612 21.9947 11.9252 22.105 12.1351C22.2153 12.345 22.3613 12.5109 22.543 12.6328C22.6469 12.6599 22.7572 12.687 22.874 12.714C22.9908 12.7411 23.1595 12.6666 23.3801 12.4906C23.6007 12.3146 23.8473 12.081 24.1199 11.7898C24.3924 11.4987 24.7298 11.045 25.1322 10.4289C25.5345 9.81273 25.9757 9.08487 26.4559 8.24528C27.2346 6.83695 27.929 5.31351 28.5389 3.67497C28.5908 3.53956 28.6557 3.42107 28.7336 3.3195C28.8115 3.21794 28.8829 3.14685 28.9477 3.10622L29.0256 3.04528L29.1229 2.9945L29.376 2.93357L29.7654 2.92341L35.3719 2.88278C35.8781 2.81508 36.2934 2.832 36.6178 2.93357C36.9423 3.03513 37.1434 3.14685 37.2213 3.26872L37.3381 3.47185Z" fill="white"/>
</svg>
