<svg width="22" height="22" viewBox="0 0 22 22" fill="none" xmlns="http://www.w3.org/2000/svg">
<g clip-path="url(#clip0_0_3809)">
<path d="M20.0588 0H1.94118C0.870941 0 0 0.870941 0 1.94118V14.8824C0 15.9526 0.870941 16.8235 1.94118 16.8235H2.58824V22.132L8.65506 16.8235H20.0588C21.1291 16.8235 22 15.9526 22 14.8824V1.94118C22 0.870941 21.1291 0 20.0588 0ZM20.7059 14.8824C20.7059 15.2382 20.416 15.5294 20.0588 15.5294H8.16847L3.88235 19.2798V15.5294H1.94118C1.584 15.5294 1.29412 15.2382 1.29412 14.8824V1.94118C1.29412 1.58529 1.584 1.29412 1.94118 1.29412H20.0588C20.416 1.29412 20.7059 1.58529 20.7059 1.94118V14.8824ZM3.88235 3.88235H18.1176V5.17647H3.88235V3.88235ZM3.88235 6.47059H18.1176V7.76471H3.88235V6.47059ZM3.88235 9.05882H11.6471V10.3529H3.88235V9.05882Z" fill="#222222"/>
</g>
<defs>
<clipPath id="clip0_0_3809">
<rect width="22" height="22" fill="white"/>
</clipPath>
</defs>
</svg>
