<svg width="30" height="30" viewBox="0 0 30 30" fill="none" xmlns="http://www.w3.org/2000/svg">
<path fill-rule="evenodd" clip-rule="evenodd" d="M1.48393 10.3563C1.57873 9.58952 1.66153 8.81312 1.74673 8.25632C1.78993 7.96952 1.84033 7.53272 2.04433 7.17032C2.18833 6.91472 2.39233 6.74792 2.73913 6.54992C3.08473 6.35312 3.32593 6.22832 3.70873 6.07592C4.02193 5.95112 4.43113 5.80712 5.07673 5.62592C7.29673 4.99832 10.6879 4.53632 15.0007 4.53632C19.3099 4.53632 22.7071 4.99832 24.9259 5.62712C25.5691 5.80832 25.9771 5.95232 26.2891 6.07712C26.6707 6.23072 26.9119 6.35672 27.2623 6.55232C27.6127 6.74912 27.8143 6.91712 27.9583 7.17392C28.1623 7.53632 28.2115 7.97312 28.2559 8.26232C28.3399 8.81912 28.4239 9.59192 28.5175 10.3575C28.6495 11.4327 28.7827 12.5451 28.8643 13.2327C29.2651 13.4679 29.6131 13.7259 29.9011 14.0079C29.7331 12.6003 29.3959 9.77072 29.2111 8.29352C29.1535 7.83752 29.0071 6.86192 28.5811 6.39632C27.1075 4.78712 21.9703 3.59912 15.0007 3.59912C8.01073 3.59912 2.86393 4.79552 1.40713 6.41192C0.999133 6.86672 0.849132 7.83272 0.791532 8.28392C0.607932 9.75872 0.268332 12.6003 0.100332 14.0103C0.389532 13.7307 0.736332 13.4751 1.13713 13.2399C1.21873 12.5511 1.35193 11.4351 1.48393 10.3563ZM4.21993 25.1607H1.40713C1.14793 25.1607 0.937932 25.3707 0.937932 25.6299C0.937932 25.8891 1.14793 26.0991 1.40713 26.0991H4.21993C4.47913 26.0991 4.68913 25.8891 4.68913 25.6299C4.68913 25.3707 4.47793 25.1607 4.21993 25.1607ZM29.0635 16.9827V16.7223C29.0635 15.5079 27.9775 14.6451 26.0767 14.0523L26.2219 12.6603C26.3299 11.6355 24.6883 10.6143 21.2899 10.2579C20.6575 10.1907 20.0779 10.1595 19.5559 10.1583C17.2735 10.1583 16.0555 10.7499 15.9679 11.5827L15.8215 12.9783C15.5491 12.9771 15.2815 12.9723 15.0019 12.9723C14.7223 12.9723 14.4559 12.9759 14.1823 12.9783L14.0335 11.5827C13.9471 10.7499 12.7279 10.1583 10.4479 10.1595C9.92353 10.1595 9.34513 10.1907 8.71033 10.2579C5.31193 10.6143 3.67033 11.6367 3.77833 12.6603L3.92473 14.0523C2.02513 14.6439 0.937932 15.5079 0.937932 16.7223V16.9827C0.379932 17.3079 0.000732422 17.9067 0.000732422 18.5979V21.4107C0.000732422 22.4463 0.840733 23.2851 1.87513 23.2851H28.1251C29.1607 23.2851 29.9995 22.4463 29.9995 21.4107V18.5979C30.0007 17.9067 29.6227 17.3079 29.0635 16.9827ZM16.8595 12.0627C16.8751 11.9199 16.8811 11.7255 16.9879 11.6163C17.1307 11.4723 17.4127 11.3727 17.7127 11.2887C18.4255 11.0883 19.6999 11.0343 21.1927 11.1915C22.6819 11.3475 23.9071 11.6655 24.5671 12.0087C24.8455 12.1539 25.1023 12.3099 25.2127 12.4803C25.2967 12.6099 25.2643 12.8019 25.2487 12.9459L25.1599 13.8039C23.0371 13.2987 20.1499 13.0527 16.7599 12.9915L16.8595 12.0627ZM4.78513 12.4803C4.89313 12.3099 5.14873 12.1551 5.42593 12.0099C6.07993 11.6667 7.31593 11.3487 8.80873 11.1915C10.2979 11.0355 11.5615 11.0907 12.2803 11.2887C12.5827 11.3727 12.8671 11.4711 13.0099 11.6151C13.1203 11.7255 13.1275 11.9187 13.1419 12.0627L13.2403 12.9903C9.85153 13.0515 6.96313 13.2975 4.84153 13.8027L4.75153 12.9447C4.73593 12.8019 4.70233 12.6111 4.78513 12.4803ZM2.30113 15.8931C2.47753 15.7179 2.76433 15.5487 3.05953 15.3963C4.91113 14.4531 8.81113 13.9095 15.0007 13.9095C21.1855 13.9095 25.0879 14.4531 26.9395 15.3963C27.2359 15.5475 27.5239 15.7167 27.7015 15.8931C27.9571 16.1475 28.1263 16.3491 28.1263 16.7223H1.87513C1.87513 16.3491 2.04433 16.1475 2.30113 15.8931ZM29.0635 21.4107C29.0635 21.9291 28.6435 22.3479 28.1263 22.3479H1.87513C1.35673 22.3479 0.937932 21.9279 0.937932 21.4107V18.5979C0.937932 18.0795 1.35793 17.6607 1.87513 17.6607H28.1251C28.6435 17.6607 29.0623 18.0807 29.0623 18.5979V21.4107H29.0635ZM28.5943 25.1607H25.7815C25.5223 25.1607 25.3123 25.3707 25.3123 25.6299C25.3123 25.8891 25.5223 26.0991 25.7815 26.0991H28.5943C28.8535 26.0991 29.0635 25.8891 29.0635 25.6299C29.0635 25.3707 28.8535 25.1607 28.5943 25.1607Z" fill="#7E869A"/>
</svg>
