<svg width="43" height="30" viewBox="0 0 43 30" fill="none" xmlns="http://www.w3.org/2000/svg">
<rect width="42.35" height="30" rx="2" fill="white"/>
<circle cx="14.7755" cy="17.5043" r="4.18785" fill="#355D9B"/>
<path opacity="0.1" d="M18.9196 17.4941C18.9196 19.789 17.0593 21.6494 14.7644 21.6494C12.4695 21.6494 10.6091 19.789 10.6091 17.4941C10.6091 15.1992 12.4695 13.3389 14.7644 13.3389C17.0592 13.3389 18.9196 15.1992 18.9196 17.4941Z" fill="white"/>
<path d="M14.6191 18.1925L14.8055 17.4906L15.2469 17.3294L15.3567 16.9168L15.3529 16.9066L14.9185 17.0653L15.2315 15.8867H14.3438L13.9344 17.4248L13.5927 17.5497L13.4797 17.975L13.8212 17.8502L13.58 18.7567H15.9425L16.094 18.1925H14.6191Z" fill="white"/>
<circle cx="11.5475" cy="12.1879" r="4.18785" fill="#647FE8"/>
<path opacity="0.2" d="M15.6916 12.1777C15.6916 14.4726 13.8312 16.333 11.5364 16.333C9.24146 16.333 7.3811 14.4726 7.3811 12.1777C7.3811 9.88282 9.24146 8.02246 11.5364 8.02246C13.8312 8.02246 15.6916 9.88282 15.6916 12.1777Z" fill="white"/>
<path d="M11.5232 10.249L11.4976 10.3363V12.8676L11.5232 12.8932L12.6983 12.1987L11.5232 10.249Z" fill="white"/>
<path d="M11.5232 10.249L10.3481 12.1987L11.5232 12.8932V11.6646V10.249Z" fill="white"/>
<path d="M11.5233 13.2753L11.5088 13.2929V14.1946L11.5233 14.2369L12.699 12.5811L11.5233 13.2753Z" fill="white"/>
<path d="M11.5232 14.2369V13.2753L10.3481 12.5811L11.5232 14.2369Z" fill="white"/>
<path d="M11.5232 12.8937L12.6982 12.1991L11.5232 11.665V12.8937Z" fill="white"/>
<path d="M10.3481 12.1991L11.5232 12.8937V11.665L10.3481 12.1991Z" fill="white"/>
<circle cx="8.11916" cy="17.4937" r="4.17726" fill="#F59E35"/>
<path opacity="0.2" d="M12.1711 18.5043C11.6132 20.7421 9.34647 22.1039 7.10837 21.546C4.87131 20.988 3.50939 18.7213 4.06745 16.4836C4.62511 14.2455 6.89167 12.8835 9.12912 13.4414C11.3671 13.9993 12.7289 16.2663 12.171 18.5043H12.1711Z" fill="white"/>
<path fill-rule="evenodd" clip-rule="evenodd" d="M9.3774 17.0091C9.43372 16.632 9.14662 16.4293 8.75405 16.2941L8.8814 15.7833L8.57039 15.7058L8.44641 16.2031C8.36476 16.1828 8.28081 16.1635 8.19739 16.1445L8.32225 15.6439L8.01151 15.5664L7.88408 16.077C7.81642 16.0616 7.75001 16.0464 7.68554 16.0304L7.68589 16.0288L7.2571 15.9217L7.17439 16.2538C7.17439 16.2538 7.40508 16.3066 7.40021 16.3099C7.52614 16.3414 7.54898 16.4247 7.54509 16.4908L7.40003 17.0727C7.40871 17.0749 7.41996 17.0781 7.43235 17.083L7.39959 17.0749L7.19618 17.89C7.18077 17.9283 7.14171 17.9857 7.05369 17.9639C7.05679 17.9684 6.82769 17.9075 6.82769 17.9075L6.67334 18.2635L7.07804 18.3643C7.12373 18.3758 7.16887 18.3876 7.21351 18.3992L7.29961 18.4215L7.17094 18.9383L7.4815 19.0158L7.60902 18.5046C7.69377 18.5276 7.77613 18.5489 7.85672 18.5689L7.72973 19.0777L8.04065 19.1551L8.16932 18.6395C8.6995 18.7398 9.09827 18.6993 9.26591 18.2199C9.40113 17.8338 9.25927 17.6111 8.98031 17.4658C9.18346 17.4187 9.33649 17.2851 9.37731 17.0091H9.3774ZM8.66692 18.0052C8.57865 18.3596 8.02385 18.213 7.77023 18.1459L7.77021 18.1459C7.74751 18.1399 7.72722 18.1346 7.70989 18.1303L7.88063 17.4458C7.90181 17.4511 7.92769 17.4569 7.957 17.4635L7.95701 17.4635C8.21939 17.5224 8.7571 17.643 8.66701 18.0052H8.66692ZM8.00972 17.1458C8.22134 17.2023 8.68262 17.3254 8.76298 17.0034C8.84513 16.6741 8.39658 16.5748 8.17752 16.5264C8.15289 16.5209 8.13116 16.5161 8.11342 16.5117L7.95862 17.1325C7.97327 17.1361 7.99046 17.1407 8.00972 17.1458Z" fill="white"/>
<path d="M24.5035 14.7793H23.7258C23.7116 14.6787 23.6826 14.5893 23.6388 14.5112C23.595 14.4319 23.5388 14.3644 23.4701 14.3088C23.4015 14.2531 23.3222 14.2105 23.2322 14.1809C23.1434 14.1513 23.0469 14.1365 22.9428 14.1365C22.7546 14.1365 22.5906 14.1833 22.4509 14.2768C22.3113 14.3691 22.203 14.5041 22.126 14.6816C22.0491 14.858 22.0106 15.0723 22.0106 15.3244C22.0106 15.5836 22.0491 15.8014 22.126 15.9778C22.2041 16.1542 22.313 16.2873 22.4527 16.3773C22.5924 16.4673 22.754 16.5123 22.9375 16.5123C23.0404 16.5123 23.1357 16.4986 23.2233 16.4714C23.3121 16.4442 23.3908 16.4045 23.4595 16.3525C23.5281 16.2992 23.5849 16.2347 23.6299 16.1589C23.6761 16.0832 23.7081 15.9967 23.7258 15.8997L24.5035 15.9032C24.4834 16.0701 24.4331 16.2311 24.3526 16.3862C24.2733 16.5401 24.1661 16.678 24.0312 16.7999C23.8974 16.9206 23.7376 17.0165 23.5518 17.0875C23.3671 17.1574 23.1582 17.1923 22.925 17.1923C22.6007 17.1923 22.3107 17.1189 22.055 16.9721C21.8005 16.8253 21.5993 16.6129 21.4513 16.3347C21.3045 16.0565 21.2311 15.7198 21.2311 15.3244C21.2311 14.9279 21.3057 14.5905 21.4549 14.3123C21.604 14.0342 21.8064 13.8223 22.0621 13.6767C22.3178 13.5299 22.6054 13.4565 22.925 13.4565C23.1357 13.4565 23.331 13.4861 23.511 13.5453C23.6921 13.6045 23.8525 13.6909 23.9921 13.8045C24.1318 13.917 24.2455 14.0549 24.3331 14.2182C24.4218 14.3816 24.4786 14.5686 24.5035 14.7793ZM25.0406 17.1426V14.4153H25.7739V14.8912H25.8023C25.8521 14.7219 25.9355 14.594 26.0527 14.5076C26.1699 14.42 26.3048 14.3762 26.4575 14.3762C26.4954 14.3762 26.5362 14.3786 26.58 14.3833C26.6238 14.3881 26.6623 14.3946 26.6954 14.4029V15.074C26.6599 15.0634 26.6108 15.0539 26.5481 15.0456C26.4853 15.0373 26.4279 15.0332 26.3758 15.0332C26.2646 15.0332 26.1651 15.0575 26.0775 15.106C25.9911 15.1533 25.9225 15.2196 25.8716 15.3049C25.8219 15.3901 25.797 15.4883 25.797 15.5996V17.1426H25.0406ZM27.6365 18.1653C27.5406 18.1653 27.4507 18.1576 27.3666 18.1422C27.2838 18.128 27.2151 18.1097 27.1606 18.0872L27.3311 17.5225C27.4199 17.5498 27.4998 17.5646 27.5708 17.5669C27.643 17.5693 27.7052 17.5527 27.7572 17.5172C27.8105 17.4817 27.8537 17.4213 27.8869 17.3361L27.9312 17.2207L26.9529 14.4153H27.7484L28.313 16.4181H28.3414L28.9114 14.4153H29.7121L28.6521 17.4373C28.6012 17.5841 28.532 17.7119 28.4444 17.8208C28.358 17.9309 28.2485 18.0156 28.1159 18.0748C27.9833 18.1351 27.8235 18.1653 27.6365 18.1653ZM30.0992 18.1653V14.4153H30.8449V14.8734H30.8787C30.9118 14.8 30.9598 14.7254 31.0225 14.6497C31.0864 14.5727 31.1693 14.5088 31.2711 14.4579C31.3741 14.4058 31.5019 14.3798 31.6546 14.3798C31.8535 14.3798 32.0369 14.4319 32.205 14.536C32.3731 14.639 32.5075 14.7947 32.6081 15.003C32.7087 15.2102 32.759 15.47 32.759 15.7825C32.759 16.0867 32.7099 16.3436 32.6116 16.5531C32.5146 16.7614 32.382 16.9194 32.2139 17.0272C32.047 17.1337 31.86 17.187 31.6528 17.187C31.5061 17.187 31.3812 17.1627 31.2782 17.1142C31.1764 17.0656 31.0929 17.0047 31.0278 16.9313C30.9627 16.8567 30.913 16.7815 30.8787 16.7058H30.8556V18.1653H30.0992ZM30.8396 15.7789C30.8396 15.9411 30.8621 16.0826 30.9071 16.2033C30.9521 16.324 31.0172 16.4181 31.1024 16.4856C31.1876 16.5519 31.2912 16.585 31.4131 16.585C31.5362 16.585 31.6404 16.5513 31.7256 16.4838C31.8109 16.4152 31.8754 16.3205 31.9192 16.1998C31.9641 16.0778 31.9866 15.9376 31.9866 15.7789C31.9866 15.6215 31.9647 15.483 31.9209 15.3635C31.8771 15.2439 31.8126 15.1504 31.7274 15.0829C31.6422 15.0154 31.5374 14.9817 31.4131 14.9817C31.29 14.9817 31.1859 15.0143 31.1006 15.0794C31.0166 15.1445 30.9521 15.2368 30.9071 15.3564C30.8621 15.4759 30.8396 15.6168 30.8396 15.7789ZM34.7139 14.4153V14.9835H33.0715V14.4153H34.7139ZM33.4444 13.7619H34.2008V16.3045C34.2008 16.3743 34.2114 16.4288 34.2327 16.4679C34.254 16.5057 34.2836 16.5324 34.3215 16.5478C34.3606 16.5632 34.4056 16.5708 34.4565 16.5708C34.492 16.5708 34.5275 16.5679 34.563 16.562C34.5985 16.5549 34.6257 16.5495 34.6447 16.546L34.7636 17.1088C34.7257 17.1207 34.6725 17.1343 34.6038 17.1497C34.5352 17.1663 34.4517 17.1763 34.3535 17.1799C34.1712 17.187 34.0114 17.1627 33.8741 17.1071C33.7379 17.0514 33.632 16.965 33.5562 16.8478C33.4805 16.7306 33.4432 16.5827 33.4444 16.4039V13.7619ZM36.4096 17.1958C36.1338 17.1958 35.8953 17.1373 35.694 17.0201C35.494 16.9017 35.3395 16.7372 35.2306 16.5265C35.1217 16.3146 35.0672 16.069 35.0672 15.7896C35.0672 15.5079 35.1217 15.2617 35.2306 15.051C35.3395 14.8391 35.494 14.6745 35.694 14.5574C35.8953 14.439 36.1338 14.3798 36.4096 14.3798C36.6854 14.3798 36.9233 14.439 37.1234 14.5574C37.3246 14.6745 37.4797 14.8391 37.5886 15.051C37.6975 15.2617 37.7519 15.5079 37.7519 15.7896C37.7519 16.069 37.6975 16.3146 37.5886 16.5265C37.4797 16.7372 37.3246 16.9017 37.1234 17.0201C36.9233 17.1373 36.6854 17.1958 36.4096 17.1958ZM36.4131 16.6099C36.5386 16.6099 36.6434 16.5744 36.7274 16.5034C36.8114 16.4312 36.8748 16.3329 36.9174 16.2086C36.9612 16.0843 36.9831 15.9429 36.9831 15.7843C36.9831 15.6257 36.9612 15.4842 36.9174 15.3599C36.8748 15.2356 36.8114 15.1374 36.7274 15.0652C36.6434 14.993 36.5386 14.9569 36.4131 14.9569C36.2865 14.9569 36.1799 14.993 36.0935 15.0652C36.0083 15.1374 35.9438 15.2356 35.9 15.3599C35.8574 15.4842 35.8361 15.6257 35.8361 15.7843C35.8361 15.9429 35.8574 16.0843 35.9 16.2086C35.9438 16.3329 36.0083 16.4312 36.0935 16.5034C36.1799 16.5744 36.2865 16.6099 36.4131 16.6099Z" fill="#222222"/>
</svg>
