<svg width="43" height="30" viewBox="0 0 43 30" fill="none" xmlns="http://www.w3.org/2000/svg">
<path d="M1.765 0.000976562H40.589C41.56 0.000976562 42.354 0.794977 42.354 1.76598V28.236C42.354 29.207 41.56 30.002 40.589 30.002H1.765C0.793999 30.002 0 29.207 0 28.236V1.76498C0 0.793976 0.793999 0.000976562 1.765 0.000976562Z" fill="#4361C3"/>
<path d="M26.25 8.82422C29.779 8.82422 32.647 11.6922 32.647 15.2212C32.647 18.7512 29.779 21.6182 26.25 21.6182C22.721 21.6182 19.853 18.7512 19.853 15.2212C19.853 11.6922 22.721 8.82422 26.25 8.82422Z" fill="#FFAF38"/>
<path d="M25.1481 11.9121H20.7361V12.7941H25.1481V11.9121Z" fill="#FFAF38"/>
<path d="M16.1031 21.6182C12.5741 21.6182 9.70605 18.7512 9.70605 15.2212C9.70605 11.6922 12.5741 8.82422 16.1031 8.82422C19.6321 8.82422 22.5001 11.6922 22.5001 15.2212C22.5001 18.7512 19.6331 21.6182 16.1031 21.6182Z" fill="#EB3636"/>
<path d="M20.7359 18.0891V17.2061H26.4709V18.0891H20.7359ZM20.7359 11.9121H26.4709V12.7941H20.7359V11.9121ZM26.0299 14.5591H20.2949V13.6771H26.0299V14.5591ZM26.0299 16.3241H20.2949V15.4421H26.0299V16.3241Z" fill="#FFAF38"/>
<path opacity="0.05" d="M1.765 30.001H2.559L42.353 2.559V1.765C42.353 0.794 41.559 0 40.588 0H1.765C0.793999 0 0 0.794 0 1.765V28.235C0 29.206 0.793999 30.001 1.765 30.001Z" fill="white"/>
</svg>
