<svg width="43" height="30" viewBox="4 0 42.354 30.001" fill="none" xmlns="http://www.w3.org/2000/svg">
<g filter="url(#filter0_d_0_4537)">
<path d="M46.353 7.94238H4V22.0594H46.353V7.94238Z" fill="#F9F9F9"/>
<path d="M5.765 0.000976562H44.589C45.559 0.000976562 46.354 0.794977 46.354 1.76598V7.94298H4V1.76498C4 0.793977 4.794 0.000976562 5.765 0.000976562Z" fill="#09599E"/>
<path d="M4 22.0586H46.353V28.2356C46.353 29.2066 45.559 30.0006 44.588 30.0006H5.765C4.794 30.0006 4 29.2066 4 28.2356V22.0586Z" fill="#E59703"/>
<path opacity="0.05" d="M5.765 29.957C4.794 29.957 4 29.163 4 28.192V1.765C4 0.794 4.794 0 5.765 0H44.589C45.559 0 46.354 0.794 46.354 1.765" fill="white"/>
<path d="M20.3679 18.707L21.6469 11.251H23.6759L22.3969 18.707H20.3679Z" fill="#00589F"/>
<path d="M29.765 11.4711C29.368 11.3391 28.75 11.1621 27.956 11.1621C25.926 11.1621 24.515 12.1771 24.515 13.6331C24.515 14.6921 25.53 15.3091 26.28 15.6621C27.074 16.0151 27.339 16.2801 27.339 16.5881C27.339 17.0731 26.721 17.3381 26.104 17.3381C25.31 17.3381 24.869 17.2061 24.207 16.9421L23.942 16.7651L23.677 18.4421C24.162 18.6631 25.045 18.8381 25.927 18.8381C28.045 18.8381 29.457 17.8231 29.457 16.2791C29.457 15.4411 28.927 14.7791 27.736 14.2501C27.03 13.8971 26.589 13.6761 26.589 13.3241C26.589 13.0151 26.942 12.6621 27.736 12.6621C28.398 12.6621 28.883 12.7941 29.236 12.9271L29.412 13.0151L29.765 11.4711Z" fill="#00589F"/>
<path d="M34.971 11.2939H33.383C32.898 11.2939 32.545 11.4259 32.324 11.9119L29.324 18.7499H31.442C31.442 18.7499 31.795 17.8229 31.883 17.6469C32.104 17.6469 34.177 17.6469 34.486 17.6469C34.53 17.9119 34.751 18.7499 34.751 18.7499H36.648L34.971 11.2939ZM32.456 16.0589C32.632 15.6179 33.25 13.9859 33.25 13.9859C33.25 13.9859 33.426 13.5449 33.515 13.2799L33.647 13.9419C33.647 13.9419 34.044 15.7069 34.132 16.1029H32.456V16.0589Z" fill="#00589F"/>
<path d="M18.6469 11.294L16.6619 16.367L16.4419 15.353C16.0889 14.162 14.8979 12.882 13.6179 12.221L15.4709 18.706H17.6329L20.8539 11.25H18.6479" fill="#00589F"/>
<path d="M14.809 11.251H11.544L11.5 11.427C14.059 12.045 15.735 13.545 16.441 15.309L15.735 11.912C15.647 11.427 15.25 11.294 14.809 11.251Z" fill="#F9A51A"/>
</g>
<defs>
<filter id="filter0_d_0_4537" x="0" y="0" width="50.354" height="38.001" filterUnits="userSpaceOnUse" color-interpolation-filters="sRGB">
<feFlood flood-opacity="0" result="BackgroundImageFix"/>
<feColorMatrix in="SourceAlpha" type="matrix" values="0 0 0 0 0 0 0 0 0 0 0 0 0 0 0 0 0 0 127 0" result="hardAlpha"/>
<feOffset dy="4"/>
<feGaussianBlur stdDeviation="2"/>
<feComposite in2="hardAlpha" operator="out"/>
<feColorMatrix type="matrix" values="0 0 0 0 0 0 0 0 0 0 0 0 0 0 0 0 0 0 0.25 0"/>
<feBlend mode="normal" in2="BackgroundImageFix" result="effect1_dropShadow_0_4537"/>
<feBlend mode="normal" in="SourceGraphic" in2="effect1_dropShadow_0_4537" result="shape"/>
</filter>
</defs>
</svg>
